<?xml version="1.0" standalone="no"?>
<!DOCTYPE svg PUBLIC "-//W3C//DTD SVG 20010904//EN"
 "http://www.w3.org/TR/2001/REC-SVG-20010904/DTD/svg10.dtd">
<svg version="1.0" xmlns="http://www.w3.org/2000/svg"
 width="700.000000pt" height="700.000000pt" viewBox="0 0 700.000000 700.000000"
 preserveAspectRatio="xMidYMid meet">
<metadata>
Created by potrace 1.11, written by Peter Selinger 2001-2013
</metadata>
<g transform="translate(0.000000,700.000000) scale(0.100000,-0.100000)"
fill="#000000" stroke="none">
<path d="M2186 6699 c-155 -21 -337 -107 -453 -213 -211 -193 -310 -452 -282
-733 45 -438 415 -772 857 -773 240 0 456 92 624 268 93 97 158 205 200 332
31 91 32 102 33 255 0 188 -16 261 -91 406 -142 275 -414 448 -729 463 -49 3
-121 0 -159 -5z"/>
<path d="M1410 4663 c0 -5 -56 -537 -124 -1183 -68 -646 -121 -1178 -119
-1182 2 -5 352 -8 778 -8 l774 0 5 33 c3 17 58 534 121 1147 64 613 118 1134
121 1158 l6 42 -781 0 c-429 0 -781 -3 -781 -7z"/>
<path d="M3156 4623 c-4 -27 -74 -696 -157 -1488 -143 -1369 -150 -1448 -146
-1595 10 -309 96 -545 283 -781 151 -190 399 -351 639 -416 174 -47 153 -46
1093 -50 729 -3 893 -2 896 9 5 14 206 1941 206 1970 0 15 -42 17 -552 20
-533 4 -555 5 -609 25 -155 58 -254 176 -282 337 -9 55 1 172 87 1002 54 516
100 956 103 977 l6 37 -781 0 -780 0 -6 -47z"/>
</g>
</svg>
